<svg width="24" height="15" viewBox="0 0 24 15" fill="none" xmlns="http://www.w3.org/2000/svg">
<path d="M1.18437 1.49688L1.18442 1.49693C0.973891 1.71778 0.856445 2.01119 0.856445 2.31631C0.856445 2.62142 0.973891 2.91483 1.18442 3.13568L11.1406 13.585C11.1406 13.585 11.1406 13.585 11.1406 13.585C11.2515 13.7014 11.3849 13.7941 11.5327 13.8574L11.6309 13.6283L11.5327 13.8574C11.6805 13.9207 11.8396 13.9534 12.0004 13.9534C12.1612 13.9534 12.3203 13.9207 12.468 13.8574C12.6158 13.7941 12.7492 13.7014 12.8601 13.585C12.8601 13.585 12.8601 13.585 12.8601 13.585L22.8163 3.13568C23.0269 2.91483 23.1443 2.62142 23.1443 2.31631C23.1443 2.01119 23.0269 1.71778 22.8163 1.49693L22.8122 1.49261L22.8122 1.49266L22.803 1.48353C22.6996 1.37528 22.5753 1.28903 22.4377 1.22995C22.299 1.17042 22.1497 1.13973 21.9988 1.13973C21.8479 1.13973 21.6986 1.17042 21.5599 1.22995C21.4213 1.28948 21.2962 1.37659 21.1922 1.48599L12.0022 11.1357L2.8085 1.48599C2.80845 1.48594 2.8084 1.48589 2.80835 1.48584L2.80825 1.48573L2.62725 1.65818C2.54667 1.57337 2.44969 1.50583 2.34219 1.45968C2.23469 1.41353 2.11892 1.38973 2.00194 1.38973C1.88495 1.38973 1.76918 1.41353 1.66169 1.45968C1.55419 1.50583 1.4572 1.57337 1.37662 1.65818L1.18437 1.49688ZM1.18437 1.49688L1.18859 1.49266L1.19772 1.48353L1.18437 1.49688Z" fill="#323434" stroke="#323434" stroke-width="0.5"/>
</svg>
