<svg width="16" height="16" viewBox="0 0 16 16" fill="none" xmlns="http://www.w3.org/2000/svg">
<path d="M7.4855 1.64533C7.55997 1.64055 7.63275 1.621 7.69959 1.58781C7.76643 1.55463 7.826 1.50848 7.87483 1.45204C7.92366 1.39561 7.96077 1.33003 7.98401 1.25911C8.00724 1.1882 8.01613 1.11336 8.01016 1.03898C8.00419 0.964593 7.98348 0.892138 7.94923 0.825836C7.91498 0.759533 7.86788 0.700708 7.81068 0.652787C7.75347 0.604866 7.6873 0.568807 7.61602 0.54671C7.54474 0.524613 7.46978 0.51692 7.3955 0.524079C3.53675 0.831579 0.5 4.06108 0.5 8.00008C0.5 12.1423 3.85775 15.5001 8 15.5001C11.9368 15.5001 15.1647 12.4671 15.4752 8.61058C15.4824 8.5363 15.4747 8.46133 15.4526 8.39006C15.4305 8.31878 15.3945 8.25261 15.3465 8.1954C15.2986 8.1382 15.2398 8.0911 15.1735 8.05685C15.1072 8.0226 15.0347 8.00189 14.9603 7.99592C14.886 7.98995 14.8111 7.99884 14.7402 8.02207C14.6693 8.04531 14.6037 8.08242 14.5473 8.13125C14.4909 8.18008 14.4447 8.23965 14.4115 8.30649C14.3783 8.37333 14.3588 8.44611 14.354 8.52058C14.2545 9.73324 13.8101 10.8921 13.0733 11.8603C12.3364 12.8285 11.3378 13.5657 10.1955 13.9846C9.0532 14.4036 7.81485 14.4869 6.6267 14.2248C5.43855 13.9626 4.35025 13.3659 3.49031 12.5051C2.63038 11.6443 2.03474 10.5554 1.77373 9.36702C1.51273 8.17862 1.59727 6.94034 2.01736 5.79844C2.43746 4.65653 3.17556 3.6587 4.1445 2.92278C5.11344 2.18686 6.27275 1.74359 7.4855 1.64533V1.64533ZM12.2728 2.50558C12.3227 2.45109 12.3828 2.40698 12.4498 2.37575C12.5168 2.34453 12.5893 2.32681 12.6631 2.3236C12.7369 2.3204 12.8107 2.33178 12.8801 2.35708C12.9495 2.38238 13.0133 2.42112 13.0677 2.47108C13.2282 2.61808 13.3827 2.77258 13.5297 2.93383C13.6244 3.04467 13.6723 3.18792 13.6634 3.33339C13.6545 3.47887 13.5895 3.61521 13.4821 3.7137C13.3746 3.81218 13.2332 3.86513 13.0875 3.86137C12.9418 3.85762 12.8032 3.79747 12.701 3.69358C12.5755 3.55669 12.4441 3.42532 12.3073 3.29983C12.2528 3.24991 12.2086 3.18974 12.1774 3.12276C12.1462 3.05578 12.1285 2.98331 12.1253 2.90948C12.1221 2.83565 12.1334 2.76191 12.1588 2.69248C12.1841 2.62305 12.2228 2.55928 12.2728 2.50483V2.50558ZM7.4375 3.50008C7.57343 3.50008 7.70476 3.54931 7.8072 3.63865C7.90964 3.728 7.97626 3.85141 7.99475 3.98608L8 4.06258V8.00008H10.4375C10.58 8.00012 10.7172 8.05426 10.8213 8.15156C10.9255 8.24885 10.9888 8.38205 10.9985 8.52424C11.0082 8.66643 10.9636 8.807 10.8737 8.91755C10.7837 9.02811 10.6552 9.1004 10.514 9.11983L10.4375 9.12508H7.4375C7.30146 9.12505 7.17004 9.07572 7.06758 8.98622C6.96512 8.89673 6.89857 8.77313 6.88025 8.63833L6.875 8.56258V4.06258C6.875 3.91339 6.93426 3.77032 7.03975 3.66483C7.14524 3.55934 7.28832 3.50008 7.4375 3.50008V3.50008ZM9.33575 1.16758C9.35566 1.0964 9.38941 1.02984 9.43506 0.971716C9.48071 0.913587 9.53737 0.865025 9.6018 0.828806C9.66623 0.792586 9.73717 0.76942 9.81055 0.76063C9.88394 0.75184 9.95834 0.757599 10.0295 0.777579C10.3031 0.854617 10.572 0.947269 10.835 1.05508C10.9055 1.08147 10.97 1.12174 11.0246 1.1735C11.0793 1.22527 11.123 1.28747 11.1531 1.35643C11.1833 1.42539 11.1993 1.4997 11.2002 1.57496C11.2012 1.65022 11.187 1.72491 11.1585 1.79459C11.13 1.86427 11.0879 1.92752 11.0345 1.98061C10.9812 2.0337 10.9177 2.07554 10.8479 2.10366C10.7781 2.13177 10.7033 2.14559 10.628 2.14428C10.5528 2.14298 10.4786 2.12659 10.4098 2.09608C10.1865 2.00465 9.9581 1.92626 9.72575 1.86133C9.65457 1.84141 9.58802 1.80767 9.52989 1.76202C9.47176 1.71637 9.4232 1.65971 9.38698 1.59528C9.35076 1.53085 9.32759 1.45991 9.3188 1.38653C9.31001 1.31314 9.31577 1.23874 9.33575 1.16758V1.16758ZM14.9443 5.16133C14.9163 5.09293 14.8751 5.0307 14.8231 4.97821C14.7711 4.92572 14.7092 4.88399 14.6411 4.8554C14.5729 4.82681 14.4998 4.81193 14.4259 4.81159C14.352 4.81126 14.2788 4.82548 14.2104 4.85345C14.142 4.88143 14.0797 4.9226 14.0273 4.97461C13.9748 5.02663 13.933 5.08848 13.9044 5.15663C13.8759 5.22477 13.861 5.29789 13.8606 5.37179C13.8603 5.44568 13.8745 5.51893 13.9025 5.58733C13.9944 5.81135 14.0732 6.04048 14.1387 6.27358C14.1576 6.34596 14.1906 6.41386 14.236 6.47332C14.2813 6.53278 14.3381 6.5826 14.4029 6.61986C14.4677 6.65712 14.5394 6.68108 14.6136 6.69034C14.6878 6.69959 14.7631 6.69396 14.8351 6.67376C14.9071 6.65357 14.9743 6.61922 15.0329 6.57272C15.0915 6.52623 15.1402 6.46852 15.1762 6.40297C15.2122 6.33743 15.2348 6.26536 15.2426 6.19099C15.2504 6.11661 15.2433 6.04143 15.2217 5.96983C15.1448 5.69523 15.0522 5.42528 14.9443 5.16133V5.16133Z" fill="#323434"/>
</svg>
