<svg width="16" height="16" viewBox="0 0 16 16" fill="none" xmlns="http://www.w3.org/2000/svg">
<path d="M9.3 0.479877C8.46548 0.146031 7.53452 0.146031 6.7 0.479877L0.943 2.78488C0.664909 2.89609 0.426479 3.08801 0.258415 3.33592C0.0903513 3.58383 0.000349414 3.87637 2.09356e-08 4.17588V11.8219C-5.00639e-05 12.1217 0.0897655 12.4147 0.257855 12.663C0.425944 12.9113 0.664593 13.1035 0.943 13.2149L6.7 15.5179C7.53452 15.8517 8.46548 15.8517 9.3 15.5179L15.057 13.2149C15.3354 13.1035 15.5741 12.9113 15.7421 12.663C15.9102 12.4147 16 12.1217 16 11.8219V4.17588C15.9999 3.8762 15.9099 3.58344 15.7419 3.33533C15.5738 3.08723 15.3352 2.89516 15.057 2.78388L9.3 0.479877ZM7.072 1.40988C7.66804 1.17145 8.33296 1.17145 8.929 1.40988L14.154 3.49988L11.875 4.40988L5.721 1.94988L7.071 1.40988H7.072ZM4.375 2.48688L10.529 4.94788L8 5.96088L1.846 3.49888L4.375 2.48788V2.48688ZM8.5 6.83688L15 4.23688V11.8209C15.0002 11.9209 14.9703 12.0187 14.9144 12.1016C14.8584 12.1845 14.7788 12.2487 14.686 12.2859L8.928 14.5889C8.788 14.6439 8.645 14.6869 8.5 14.7169V6.83688ZM7.5 6.83688V14.7169C7.35381 14.687 7.21057 14.6442 7.072 14.5889L1.314 12.2859C1.22131 12.2487 1.14187 12.1847 1.08591 12.102C1.02994 12.0193 1.00002 11.9217 1 11.8219V4.23788L7.5 6.83788V6.83688Z" fill="#323434"/>
</svg>
