<svg width="16" height="14" viewBox="0 0 16 14" fill="none" xmlns="http://www.w3.org/2000/svg">
<path d="M2.53297 11.4588C1.35044 10.2768 0.685899 8.67343 0.685547 7.00143C0.685195 5.32942 1.34906 3.72576 2.5311 2.54322C3.71313 1.36069 5.31652 0.696153 6.98852 0.695801C8.66052 0.695449 10.2642 1.35931 11.4467 2.54135L6.99172 7.0001L11.4467 11.4588C10.2641 12.6398 8.66113 13.3031 6.98985 13.3031C5.31856 13.3031 3.7156 12.6398 2.53297 11.4588V11.4588ZM13.4642 11.4588L9.00922 7.0001L13.4642 2.54135C14.0504 3.1265 14.5155 3.82151 14.8328 4.58659C15.1501 5.35168 15.3134 6.17183 15.3134 7.0001C15.3134 7.82837 15.1501 8.64852 14.8328 9.4136C14.5155 10.1787 14.0504 10.8737 13.4642 11.4588V11.4588Z" stroke="#323434" stroke-linecap="round" stroke-linejoin="round"/>
</svg>
