<svg width="17" height="17" viewBox="0 0 17 17" fill="none" xmlns="http://www.w3.org/2000/svg">
<path d="M14.875 1.0625C15.1568 1.0625 15.427 1.17444 15.6263 1.3737C15.8256 1.57296 15.9375 1.84321 15.9375 2.125V10.625C15.9375 10.9068 15.8256 11.177 15.6263 11.3763C15.427 11.5756 15.1568 11.6875 14.875 11.6875H4.68988C4.12634 11.6876 3.58592 11.9116 3.1875 12.3101L1.0625 14.4351V2.125C1.0625 1.84321 1.17444 1.57296 1.3737 1.3737C1.57296 1.17444 1.84321 1.0625 2.125 1.0625H14.875ZM2.125 0C1.56141 0 1.02091 0.223883 0.622398 0.622398C0.223883 1.02091 0 1.56141 0 2.125L0 15.7176C2.23283e-05 15.8227 0.0312296 15.9254 0.0896721 16.0128C0.148115 16.1002 0.231165 16.1683 0.328312 16.2084C0.425459 16.2486 0.532335 16.259 0.635413 16.2384C0.738492 16.2178 0.833139 16.167 0.907375 16.0926L3.93869 13.0613C4.1379 12.862 4.40811 12.7501 4.68988 12.75H14.875C15.4386 12.75 15.9791 12.5261 16.3776 12.1276C16.7761 11.7291 17 11.1886 17 10.625V2.125C17 1.56141 16.7761 1.02091 16.3776 0.622398C15.9791 0.223883 15.4386 0 14.875 0L2.125 0Z" fill="#323434"/>
</svg>
