<svg width="24" height="24" viewBox="0 0 24 24" fill="none" xmlns="http://www.w3.org/2000/svg">
<path d="M12 0C18.6274 0 24 5.37258 24 12C24 18.6274 18.6274 24 12 24C5.37258 24 0 18.6274 0 12C0 5.37258 5.37258 0 12 0ZM14.9531 5.25H9.04688C6.94992 5.25 5.25 6.94992 5.25 9.04688V14.9531C5.25 17.0501 6.94992 18.75 9.04688 18.75H14.9531C17.0501 18.75 18.75 17.0501 18.75 14.9531V9.04688C18.75 6.94992 17.0501 5.25 14.9531 5.25ZM14.9531 6.51562C16.3511 6.51562 17.4844 7.64888 17.4844 9.04688V14.9531C17.4844 16.3511 16.3511 17.4844 14.9531 17.4844H9.04688C7.64888 17.4844 6.51562 16.3511 6.51562 14.9531V9.04688C6.51562 7.64888 7.64888 6.51562 9.04688 6.51562H14.9531ZM12 8.20312C9.90308 8.20312 8.20312 9.90308 8.20312 12C8.20312 14.0969 9.90308 15.7969 12 15.7969C14.0969 15.7969 15.7969 14.0969 15.7969 12C15.7969 9.90308 14.0969 8.20312 12 8.20312ZM12 9.46875C13.398 9.46875 14.5312 10.602 14.5312 12C14.5312 13.398 13.398 14.5312 12 14.5312C10.602 14.5312 9.46875 13.398 9.46875 12C9.46875 10.602 10.602 9.46875 12 9.46875ZM15.5941 7.56217C15.1281 7.56217 14.7503 7.93987 14.7503 8.40592C14.7503 8.8719 15.1281 9.24967 15.5941 9.24967C16.0601 9.24967 16.4378 8.8719 16.4378 8.40592C16.4378 7.93987 16.0601 7.56217 15.5941 7.56217Z" fill="#323434"/>
</svg>
