<svg width="24" height="24" viewBox="0 0 24 24" fill="none" xmlns="http://www.w3.org/2000/svg">
<path fill-rule="evenodd" clip-rule="evenodd" d="M12 0C18.6274 0 24 5.37258 24 12C24 18.6274 18.6274 24 12 24C5.37258 24 0 18.6274 0 12C0 5.37258 5.37258 0 12 0ZM13.8341 6.19709C12.7164 6.64538 11.984 7.77925 12 9.03631V9.70506C9.72861 9.76695 7.57856 8.62969 6.27273 6.67561C6.27273 6.67561 3.72727 12.6944 9.45455 15.3694C8.14397 16.3043 6.58274 16.773 5 16.7069C10.7273 20.0506 17.7273 16.7069 17.7273 9.01624C17.7267 8.82997 17.7096 8.64415 17.6764 8.46118C18.3258 7.78808 18.7842 6.93824 19 6.00686C18.3906 6.45859 17.7159 6.80409 17.0018 7.03005C16.2168 6.08145 14.9517 5.7488 13.8341 6.19709Z" fill="#323434"/>
</svg>
