<svg width="18" height="18" viewBox="0 0 18 18" fill="none" xmlns="http://www.w3.org/2000/svg">
<path fill-rule="evenodd" clip-rule="evenodd" d="M14.9611 0C13.7227 0 12.6754 0.8523 12.3728 1.99656L12.0397 1.84176C11.9802 1.81413 11.9155 1.79981 11.8499 1.79981C11.7844 1.79981 11.7197 1.81413 11.6602 1.84176L6.14988 4.40154L0.63954 1.84194C0.570974 1.8101 0.495492 1.79604 0.420061 1.80107C0.344629 1.8061 0.271681 1.83005 0.20795 1.87072C0.144219 1.91138 0.0917601 1.96745 0.0554156 2.03374C0.019071 2.10002 1.26958e-05 2.1744 1.21366e-08 2.25V14.9017C-1.99103e-05 14.9875 0.024488 15.0715 0.070635 15.1438C0.116782 15.2161 0.182645 15.2738 0.26046 15.3099L5.96034 17.9575C6.01977 17.9852 6.08452 17.9995 6.15006 17.9995C6.2156 17.9995 6.28035 17.9852 6.33978 17.9575L11.8501 15.3979L17.3605 17.9575C17.6587 18.0959 18 17.8783 18 17.5496V4.89798C18 4.81218 17.9755 4.72817 17.9294 4.65584C17.8832 4.58351 17.8174 4.52588 17.7395 4.48974L17.1581 4.21938L17.3401 3.90942C17.3815 3.83436 17.4145 3.75444 17.4427 3.67272C17.5731 3.35503 17.6401 3.01494 17.64 2.67156C17.64 1.2033 16.4336 0 14.9611 0ZM14.9611 1.25154C15.754 1.25154 16.3845 1.88082 16.3845 2.67156C16.3845 3.46212 15.754 4.09086 14.9611 4.09086C14.1682 4.09086 13.5376 3.46212 13.5376 2.67156C13.5376 1.88082 14.1682 1.25154 14.9611 1.25154ZM12.0512 2.8395L12.299 2.95488C12.3474 3.40466 12.5101 3.83458 12.7715 4.20372L14.6342 7.42392C14.8952 7.76484 15.0687 7.70004 15.2856 7.40592L16.6999 4.99878L17.1 5.1849V16.8444L12.118 14.5301L12.0773 7.38846C12.1507 7.4043 12.224 7.4196 12.2976 7.43706L12.4632 6.73668C12.3336 6.70604 12.2035 6.67766 12.073 6.65154L12.0514 2.8395H12.0512ZM11.5115 2.90322L11.5322 6.5637C11.3463 6.53819 11.1594 6.52131 10.9719 6.51312L10.9453 7.2324C11.1411 7.2396 11.3386 7.26084 11.5366 7.28964L11.578 14.5318L6.41628 16.9299L6.34986 5.30118L11.5115 2.9034V2.90322ZM0.9 2.95524L5.8095 5.23584L5.87628 16.9263L0.9 14.6144V2.95524ZM10.1777 6.56226C9.92988 6.60672 9.67626 6.6861 9.4401 6.82344C9.1576 6.98701 8.92529 7.22481 8.76834 7.51104L9.3987 7.8588C9.49262 7.68781 9.63108 7.54543 9.79938 7.44678L9.80046 7.44606L9.80154 7.44534C9.9468 7.36074 10.1198 7.30386 10.305 7.27074L10.1777 6.56226ZM13.1776 6.92784L12.9737 7.61796C13.4242 7.75116 13.8704 7.90416 14.3141 8.06976L14.566 7.39512C14.1102 7.2252 13.648 7.0668 13.1776 6.92784ZM8.49726 8.29512L8.49186 8.32356L8.49132 8.32608C8.4015 8.83566 8.41104 9.33714 8.4312 9.81378L9.15048 9.78318C9.13086 9.32076 9.12672 8.87328 9.20034 8.45334L9.20466 8.43084L8.49726 8.29512ZM9.19332 10.4929L8.47512 10.5415C8.50752 11.0219 8.54208 11.4928 8.54082 11.9545L9.26082 11.9563C9.26226 11.4577 9.22572 10.9703 9.19332 10.4929ZM8.505 12.6331C8.4852 12.8047 8.45568 12.9715 8.41248 13.1317L8.41212 13.1326L8.41176 13.1341C8.34876 13.3744 8.24274 13.5968 8.09478 13.7711L8.64324 14.2373C8.87508 13.9646 9.02214 13.6436 9.10764 13.3189L9.108 13.3178C9.162 13.117 9.1971 12.9146 9.22014 12.7148L8.505 12.6331ZM2.42676 13.3348L2.10348 13.9781C2.54988 14.2025 3.01158 14.3881 3.47652 14.5487L3.71142 13.8681C3.26952 13.7156 2.83806 13.5414 2.42676 13.3348ZM4.37724 14.0751L4.18572 14.7692C4.662 14.9008 5.1516 15.0053 5.652 15.0617L5.73228 14.3462C5.2785 14.2952 4.82598 14.1991 4.37724 14.0751ZM7.64262 14.1259C7.28406 14.3095 6.85116 14.3773 6.40602 14.3827L6.41502 15.1027C6.92514 15.0966 7.47054 15.0228 7.97058 14.7667L7.64262 14.1259Z" fill="#323434"/>
</svg>
