<svg width="17" height="17" viewBox="0 0 17 17" fill="none" xmlns="http://www.w3.org/2000/svg">
<path d="M14.875 1.0625C15.1568 1.0625 15.427 1.17444 15.6263 1.3737C15.8256 1.57296 15.9375 1.84321 15.9375 2.125V10.625C15.9375 10.9068 15.8256 11.177 15.6263 11.3763C15.427 11.5756 15.1568 11.6875 14.875 11.6875H4.68988C4.12634 11.6876 3.58592 11.9116 3.1875 12.3101L1.0625 14.4351V2.125C1.0625 1.84321 1.17444 1.57296 1.3737 1.3737C1.57296 1.17444 1.84321 1.0625 2.125 1.0625H14.875ZM2.125 0C1.56141 0 1.02091 0.223883 0.622398 0.622398C0.223883 1.02091 0 1.56141 0 2.125L0 15.7176C2.23283e-05 15.8227 0.0312296 15.9254 0.0896721 16.0128C0.148115 16.1002 0.231165 16.1683 0.328312 16.2084C0.425459 16.2486 0.532335 16.259 0.635413 16.2384C0.738492 16.2178 0.833139 16.167 0.907375 16.0926L3.93869 13.0613C4.1379 12.862 4.40811 12.7501 4.68988 12.75H14.875C15.4386 12.75 15.9791 12.5261 16.3776 12.1276C16.7761 11.7291 17 11.1886 17 10.625V2.125C17 1.56141 16.7761 1.02091 16.3776 0.622398C15.9791 0.223883 15.4386 0 14.875 0L2.125 0Z" fill="#323434"/>
<path d="M3.1875 3.71875C3.1875 3.57785 3.24347 3.44273 3.3431 3.3431C3.44273 3.24347 3.57785 3.1875 3.71875 3.1875H13.2812C13.4221 3.1875 13.5573 3.24347 13.6569 3.3431C13.7565 3.44273 13.8125 3.57785 13.8125 3.71875C13.8125 3.85965 13.7565 3.99477 13.6569 4.0944C13.5573 4.19403 13.4221 4.25 13.2812 4.25H3.71875C3.57785 4.25 3.44273 4.19403 3.3431 4.0944C3.24347 3.99477 3.1875 3.85965 3.1875 3.71875ZM3.1875 6.375C3.1875 6.2341 3.24347 6.09898 3.3431 5.99935C3.44273 5.89972 3.57785 5.84375 3.71875 5.84375H13.2812C13.4221 5.84375 13.5573 5.89972 13.6569 5.99935C13.7565 6.09898 13.8125 6.2341 13.8125 6.375C13.8125 6.5159 13.7565 6.65102 13.6569 6.75065C13.5573 6.85028 13.4221 6.90625 13.2812 6.90625H3.71875C3.57785 6.90625 3.44273 6.85028 3.3431 6.75065C3.24347 6.65102 3.1875 6.5159 3.1875 6.375ZM3.1875 9.03125C3.1875 8.89035 3.24347 8.75523 3.3431 8.6556C3.44273 8.55597 3.57785 8.5 3.71875 8.5H9.03125C9.17215 8.5 9.30727 8.55597 9.4069 8.6556C9.50653 8.75523 9.5625 8.89035 9.5625 9.03125C9.5625 9.17215 9.50653 9.30727 9.4069 9.4069C9.30727 9.50653 9.17215 9.5625 9.03125 9.5625H3.71875C3.57785 9.5625 3.44273 9.50653 3.3431 9.4069C3.24347 9.30727 3.1875 9.17215 3.1875 9.03125Z" fill="#323434"/>
</svg>
